<svg id="regular" enable-background="new 0 0 24 24" height="512" viewBox="0 0 24 24" width="512" xmlns="http://www.w3.org/2000/svg"><path d="m2 13.75v8.75h-1.25c-.414 0-.75.336-.75.75s.336.75.75.75h2 12.52 1.98c.414 0 .75-.336.75-.75s-.336-.75-.75-.75h-1.23v-6.543l1.145-1.16c.035-.037.067-.076.095-.119l3.046-4.699c.247.131.52.208.808.209h.006c.467 0 .906-.182 1.237-.513l1.132-1.132c.683-.682.683-1.793 0-2.475l-5.556-5.555c-.682-.683-1.793-.683-2.475 0l-1.1 1.1c-.467.467-.607 1.135-.433 1.73l-4.449 1.13c-1.825.465-3.351 1.69-4.188 3.364-.443.897-.678 1.89-.678 2.873 0 .793.161 1.564.444 2.29h-2.304c-.414 0-.75.336-.75.75zm13.418-11.076c0-.001 0-.001 0 0l1.1-1.101c.048-.049.112-.073.176-.073s.128.024.177.073l5.556 5.555c.098.098.098.256 0 .354l-1.132 1.131c-.063.064-.138.074-.177.074h-.001c-.039 0-.113-.01-.177-.074l-5.524-5.587c-.096-.097-.096-.255.002-.352zm-9.308 8.036c0-.753.181-1.517.521-2.205.642-1.282 1.812-2.222 3.214-2.578l5.059-1.286 4.273 4.321-3.135 4.835-4.331 4.391c-.25.249-.535.301-.73.301-.358 0-.682-.185-.865-.492-.23-.39-.136-.937.226-1.298l3.829-3.839c.255-.254.292-.654.091-.951l-.162-.237c-.666-.925-1.73-1.443-2.885-1.385-1.143.059-2.165.687-2.734 1.679l-.595 1.034h-1.186c-.38-.701-.59-1.481-.59-2.29zm5.802 2.29h-2.297l.165-.287c.319-.557.87-.895 1.511-.928.513-.029.995.15 1.35.484zm-8.412 1.5h6.916l-1.137 1.14c-.851.852-1.037 2.136-.453 3.124.458.768 1.264 1.227 2.155 1.227.676 0 1.312-.262 1.794-.743l1.745-1.769v5.021h-11.02z"/></svg>